<svg width="476" height="100" viewBox="0 0 476 100" fill="none" xmlns="http://www.w3.org/2000/svg">
<path d="M435.702 99.08C434.294 99.08 433.046 98.984 431.958 98.792C430.934 98.6 429.942 98.344 428.982 98.024L431.094 89.384C431.606 89.512 432.214 89.672 432.918 89.864C433.622 90.056 434.326 90.152 435.03 90.152C437.91 90.152 440.214 89.192 441.942 87.272C443.67 85.416 445.014 83.08 445.974 80.264L447.126 76.616L426.198 24.104H437.43L447.126 51.368C447.958 53.736 448.758 56.2 449.526 58.76C450.358 61.256 451.19 63.752 452.022 66.248H452.502C453.142 63.816 453.814 61.32 454.518 58.76C455.222 56.2 455.926 53.736 456.63 51.368L465.174 24.104H475.83L456.438 80.168C455.094 83.944 453.494 87.24 451.638 90.056C449.846 92.936 447.67 95.144 445.11 96.68C442.55 98.28 439.414 99.08 435.702 99.08Z" fill="url(#paint0_linear_1416_3)"/>
<path d="M394.063 77V24.104H403.087L404.047 33.608H404.239C406.159 30.216 408.431 27.5919 411.055 25.7359C413.679 23.8159 416.431 22.856 419.311 22.856C420.591 22.856 421.679 22.952 422.575 23.144C423.471 23.336 424.335 23.5919 425.167 23.9119L423.247 33.608C422.287 33.288 421.423 33.064 420.655 32.936C419.887 32.808 418.959 32.7439 417.871 32.7439C415.759 32.7439 413.519 33.608 411.151 35.336C408.783 37 406.767 39.944 405.103 44.168V77H394.063Z" fill="url(#paint1_linear_1416_3)"/>
<path d="M353.245 78.3439C350.237 78.3439 347.549 77.704 345.181 76.424C342.877 75.144 341.052 73.352 339.708 71.048C338.364 68.744 337.693 66.0559 337.693 62.9839C337.693 57.2879 340.189 52.904 345.181 49.832C350.237 46.696 358.269 44.52 369.277 43.304C369.213 41.256 368.892 39.368 368.316 37.64C367.74 35.912 366.717 34.536 365.245 33.512C363.837 32.424 361.821 31.88 359.197 31.88C356.445 31.88 353.789 32.424 351.229 33.512C348.669 34.6 346.236 35.848 343.932 37.256L339.805 29.768C341.661 28.6159 343.709 27.528 345.949 26.504C348.189 25.416 350.588 24.5519 353.148 23.9119C355.708 23.208 358.365 22.856 361.117 22.856C365.533 22.856 369.149 23.752 371.965 25.544C374.781 27.272 376.86 29.8 378.204 33.128C379.612 36.456 380.316 40.488 380.316 45.224V77H371.293L370.428 70.952H370.044C367.676 72.9999 365.084 74.7599 362.268 76.2319C359.452 77.6399 356.445 78.3439 353.245 78.3439ZM356.604 69.5119C358.908 69.5119 361.052 69 363.036 67.976C365.021 66.888 367.101 65.32 369.277 63.272V50.408C364.093 50.984 359.965 51.848 356.893 53C353.821 54.088 351.612 55.4 350.268 56.936C348.988 58.408 348.349 60.1359 348.349 62.1199C348.349 64.7439 349.149 66.632 350.749 67.784C352.349 68.936 354.3 69.5119 356.604 69.5119Z" fill="url(#paint2_linear_1416_3)"/>
<path d="M325.101 78.3442C321.133 78.3442 317.965 77.5762 315.597 76.0402C313.293 74.4402 311.629 72.2642 310.605 69.5122C309.581 66.6962 309.069 63.4322 309.069 59.7202V33.0322H301.389V24.7762L309.645 24.1042L310.893 9.51221H320.109V24.1042H333.837V33.0322H320.109V59.8162C320.109 62.9522 320.717 65.3522 321.933 67.0162C323.149 68.6162 325.133 69.4162 327.885 69.4162C328.781 69.4162 329.741 69.2882 330.765 69.0322C331.789 68.7762 332.685 68.4882 333.453 68.1682L335.469 76.3282C334.061 76.7762 332.461 77.2242 330.669 77.6722C328.941 78.1202 327.085 78.3442 325.101 78.3442Z" fill="url(#paint3_linear_1416_3)"/>
<path d="M249.354 77V24.104H258.378L259.338 31.4959H259.531C261.963 29.1279 264.586 27.1119 267.402 25.448C270.218 23.72 273.418 22.856 277.002 22.856C282.634 22.856 286.73 24.68 289.29 28.3279C291.914 31.9119 293.226 37.0639 293.226 43.784V77H282.186V45.128C282.186 40.584 281.482 37.352 280.074 35.432C278.666 33.448 276.394 32.456 273.258 32.456C270.826 32.456 268.65 33.064 266.73 34.28C264.874 35.432 262.762 37.192 260.394 39.56V77H249.354Z" fill="url(#paint4_linear_1416_3)"/>
<path d="M218.98 78.3439C214.18 78.3439 209.828 77.256 205.924 75.08C202.02 72.84 198.916 69.672 196.612 65.576C194.308 61.416 193.156 56.424 193.156 50.6C193.156 46.312 193.828 42.472 195.172 39.08C196.516 35.624 198.34 32.7119 200.644 30.3439C202.948 27.9119 205.54 26.056 208.42 24.776C211.3 23.496 214.244 22.856 217.252 22.856C221.924 22.856 225.86 23.912 229.06 26.024C232.26 28.072 234.692 30.9839 236.356 34.7599C238.02 38.4719 238.852 42.8239 238.852 47.8159C238.852 48.9039 238.788 49.9599 238.66 50.9839C238.596 51.9439 238.468 52.7759 238.276 53.4799H204.004C204.324 56.808 205.188 59.6879 206.596 62.1199C208.068 64.4879 209.956 66.344 212.26 67.688C214.628 68.968 217.316 69.608 220.324 69.608C222.692 69.608 224.9 69.256 226.948 68.552C228.996 67.848 230.98 66.888 232.9 65.672L236.74 72.6799C234.308 74.2799 231.588 75.624 228.58 76.712C225.636 77.8 222.436 78.3439 218.98 78.3439ZM203.908 45.7999H229.252C229.252 41.32 228.228 37.832 226.18 35.336C224.196 32.84 221.284 31.5919 217.444 31.5919C215.268 31.5919 213.22 32.136 211.3 33.224C209.38 34.312 207.748 35.912 206.404 38.024C205.124 40.136 204.292 42.7279 203.908 45.7999Z" fill="url(#paint5_linear_1416_3)"/>
<path d="M108.257 77V24.104H117.281L118.241 31.5919H118.433C120.737 29.1599 123.201 27.1119 125.825 25.448C128.513 23.72 131.521 22.856 134.849 22.856C138.753 22.856 141.857 23.72 144.161 25.448C146.465 27.1119 148.193 29.4799 149.345 32.5519C151.969 29.7359 154.657 27.432 157.409 25.64C160.225 23.784 163.265 22.856 166.529 22.856C172.033 22.856 176.097 24.68 178.721 28.3279C181.409 31.9119 182.753 37.0639 182.753 43.784V77H171.617V45.128C171.617 40.584 170.913 37.352 169.505 35.432C168.097 33.448 165.889 32.456 162.881 32.456C161.089 32.456 159.201 33.032 157.217 34.184C155.297 35.336 153.217 37.128 150.977 39.56V77H139.937V45.128C139.937 40.584 139.233 37.352 137.825 35.432C136.417 33.448 134.177 32.456 131.105 32.456C129.377 32.456 127.521 33.032 125.537 34.184C123.553 35.336 121.473 37.128 119.297 39.56V77H108.257Z" fill="url(#paint6_linear_1416_3)"/>
<path d="M82.5208 77V24.104H93.5608V77H82.5208ZM88.0888 14.312C85.9768 14.312 84.2808 13.704 83.0008 12.488C81.7848 11.272 81.1768 9.63997 81.1768 7.59196C81.1768 5.67197 81.7848 4.10397 83.0008 2.88797C84.2808 1.67197 85.9768 1.06396 88.0888 1.06396C90.0728 1.06396 91.7048 1.67197 92.9848 2.88797C94.2648 4.10397 94.9048 5.67197 94.9048 7.59196C94.9048 9.63997 94.2648 11.272 92.9848 12.488C91.7048 13.704 90.0728 14.312 88.0888 14.312Z" fill="url(#paint7_linear_1416_3)"/>
<path d="M66.791 78.3438C64.103 78.3438 61.959 77.7998 60.359 76.7118C58.759 75.5598 57.607 73.9598 56.903 71.9118C56.199 69.7998 55.847 67.3358 55.847 64.5198V0.487793H66.887V65.0958C66.887 66.5678 67.143 67.6238 67.655 68.2638C68.231 68.8398 68.839 69.1278 69.479 69.1278C69.735 69.1278 69.991 69.1278 70.247 69.1278C70.503 69.0638 70.887 68.9998 71.399 68.9358L72.743 77.2878C72.103 77.5438 71.303 77.7678 70.343 77.9598C69.383 78.2158 68.199 78.3438 66.791 78.3438Z" fill="url(#paint8_linear_1416_3)"/>
<path d="M26.432 78.3439C21.632 78.3439 17.28 77.256 13.376 75.08C9.47203 72.84 6.36803 69.672 4.06403 65.576C1.76003 61.416 0.608032 56.424 0.608032 50.6C0.608032 46.312 1.28003 42.472 2.62403 39.08C3.96803 35.624 5.79203 32.7119 8.09603 30.3439C10.4 27.9119 12.992 26.056 15.872 24.776C18.752 23.496 21.696 22.856 24.704 22.856C29.376 22.856 33.312 23.912 36.512 26.024C39.712 28.072 42.144 30.9839 43.808 34.7599C45.472 38.4719 46.304 42.8239 46.304 47.8159C46.304 48.9039 46.24 49.9599 46.112 50.9839C46.048 51.9439 45.92 52.7759 45.728 53.4799H11.456C11.776 56.808 12.64 59.6879 14.048 62.1199C15.52 64.4879 17.408 66.344 19.712 67.688C22.08 68.968 24.768 69.608 27.776 69.608C30.144 69.608 32.352 69.256 34.4 68.552C36.448 67.848 38.432 66.888 40.352 65.672L44.192 72.6799C41.76 74.2799 39.04 75.624 36.032 76.712C33.088 77.8 29.888 78.3439 26.432 78.3439ZM11.36 45.7999H36.704C36.704 41.32 35.68 37.832 33.632 35.336C31.648 32.84 28.736 31.5919 24.896 31.5919C22.72 31.5919 20.672 32.136 18.752 33.224C16.832 34.312 15.2 35.912 13.856 38.024C12.576 40.136 11.744 42.7279 11.36 45.7999Z" fill="url(#paint9_linear_1416_3)"/>
<defs>
<linearGradient id="paint0_linear_1416_3" x1="-3.99999" y1="39" x2="478" y2="39" gradientUnits="userSpaceOnUse">
<stop stop-color="#138FE7"/>
<stop offset="1" stop-color="#3650E4"/>
</linearGradient>
<linearGradient id="paint1_linear_1416_3" x1="-4.00003" y1="38.9999" x2="478" y2="38.9999" gradientUnits="userSpaceOnUse">
<stop stop-color="#138FE7"/>
<stop offset="1" stop-color="#3650E4"/>
</linearGradient>
<linearGradient id="paint2_linear_1416_3" x1="-4.00001" y1="38.9999" x2="478" y2="38.9999" gradientUnits="userSpaceOnUse">
<stop stop-color="#138FE7"/>
<stop offset="1" stop-color="#3650E4"/>
</linearGradient>
<linearGradient id="paint3_linear_1416_3" x1="-4.00001" y1="39.0002" x2="478" y2="39.0002" gradientUnits="userSpaceOnUse">
<stop stop-color="#138FE7"/>
<stop offset="1" stop-color="#3650E4"/>
</linearGradient>
<linearGradient id="paint4_linear_1416_3" x1="-4" y1="38.9999" x2="478" y2="38.9999" gradientUnits="userSpaceOnUse">
<stop stop-color="#138FE7"/>
<stop offset="1" stop-color="#3650E4"/>
</linearGradient>
<linearGradient id="paint5_linear_1416_3" x1="-3.99999" y1="38.9999" x2="478" y2="38.9999" gradientUnits="userSpaceOnUse">
<stop stop-color="#138FE7"/>
<stop offset="1" stop-color="#3650E4"/>
</linearGradient>
<linearGradient id="paint6_linear_1416_3" x1="-4" y1="38.9999" x2="478" y2="38.9999" gradientUnits="userSpaceOnUse">
<stop stop-color="#138FE7"/>
<stop offset="1" stop-color="#3650E4"/>
</linearGradient>
<linearGradient id="paint7_linear_1416_3" x1="-4" y1="39" x2="478" y2="39" gradientUnits="userSpaceOnUse">
<stop stop-color="#138FE7"/>
<stop offset="1" stop-color="#3650E4"/>
</linearGradient>
<linearGradient id="paint8_linear_1416_3" x1="-4" y1="38.9998" x2="478" y2="38.9998" gradientUnits="userSpaceOnUse">
<stop stop-color="#138FE7"/>
<stop offset="1" stop-color="#3650E4"/>
</linearGradient>
<linearGradient id="paint9_linear_1416_3" x1="-4" y1="38.9999" x2="478" y2="38.9999" gradientUnits="userSpaceOnUse">
<stop stop-color="#138FE7"/>
<stop offset="1" stop-color="#3650E4"/>
</linearGradient>
</defs>
</svg>
